<svg id="Layer_2" width="48" height="41" viewBox="0 0 32 32" class="trashBin" xmlns="http://www.w3.org/2000/svg"><g><path d="m28.5 6.21997h-4.96002v-1.54999c0-2.02002-1.63996-3.66998-3.65998-3.66998h-7.76c-2.02002 0-3.65997 1.64996-3.65997 3.66998v1.54999h-4.96003c-.79999 0-1.45001.65002-1.45001 1.45001s.65002 1.45002 1.45001 1.45002h1.08002l1.66998 18.53997c.16998 1.91004 1.73999 3.34003 3.65002 3.34003h12.19995c1.91003 0 3.48004-1.42999 3.65002-3.34003l1.66999-18.53997h1.08002c.79999 0 1.45001-.65002 1.45001-1.45001s-.65002-1.45002-1.45001-1.45002zm-17.21002 17.26001v-9.72998c0-.81.65002-1.46002 1.45001-1.46002s1.45001.65002 1.45001 1.46002v9.72998c0 .79999-.65002 1.45001-1.45001 1.45001s-1.45001-.65002-1.45001-1.45001zm9.42004 0c0 .79999-.65002 1.45001-1.45001 1.45001s-1.45001-.65002-1.45001-1.45001v-9.72998c0-.81.65002-1.46002 1.45001-1.46002s1.45001.65002 1.45001 1.46002zm-9.35003-18.81c0-.41998.34003-.77002.76001-.77002h7.76c.41998 0 .76001.35004.76001.77002v1.54999h-9.28003v-1.54999z"></path></g></svg>